HIERARCHY
ROOT root
{
	OFFSET	0	13.1	24.9
	CHANNELS 6  Xposition Yposition Zposition Xrotation Yrotation Zrotation
	JOINT spine_1
	{
		OFFSET	0	9.99999	0
		CHANNELS 3  Xrotation Yrotation Zrotation
		JOINT spine_2
		{
			OFFSET	0	112	-10
			CHANNELS 3  Xrotation Yrotation Zrotation
			JOINT spine_3
			{
				OFFSET	0	206.5	19.3
				CHANNELS 3  Xrotation Yrotation Zrotation
				JOINT spine_4
				{
					OFFSET	0	110.4	14.6
					CHANNELS 3  Xrotation Yrotation Zrotation
					JOINT neck_1
					{
						OFFSET	0	71.8	-50.3
						CHANNELS 3  Xrotation Yrotation Zrotation
						JOINT neck_2
						{
							OFFSET	0	86.2	-25.8
							CHANNELS 3  Xrotation Yrotation Zrotation
							JOINT head_ee
							{
								OFFSET	0	179.8	-8.7
								CHANNELS 3  Xrotation Yrotation Zrotation
								End Site
								{
									OFFSET	1	0	0
								}
							}
						}
					}
					JOINT left_clavicle
					{
						OFFSET	-43.2	22.4	-70.8
						CHANNELS 3  Xrotation Yrotation Zrotation
						JOINT left_shoulder
						{
							OFFSET	-93.9	-5.79999	48.7
							CHANNELS 3  Xrotation Yrotation Zrotation
							JOINT left_elbow
							{
								OFFSET	-291.4	-30.8	15.2
								CHANNELS 3  Xrotation Yrotation Zrotation
								JOINT left_lowarm_twist
								{
									OFFSET	-110.7	-3.89999	13.6
									CHANNELS 3  Xrotation Yrotation Zrotation
									JOINT left_hand
									{
										OFFSET	-110.7	-3.89999	13.6
										CHANNELS 3  Xrotation Yrotation Zrotation
										JOINT left_ee
										{
											OFFSET	-80.8	-5.10001	12.1
											CHANNELS 3  Xrotation Yrotation Zrotation
											End Site
											{
												OFFSET	1	0	0
											}
										}
									}
								}
							}
						}
					}
					JOINT right_clavicle
					{
						OFFSET	43.2	22.4	-70.8
						CHANNELS 3  Xrotation Yrotation Zrotation
						JOINT right_shoulder
						{
							OFFSET	93.9	-5.79999	48.7
							CHANNELS 3  Xrotation Yrotation Zrotation
							JOINT right_elbow
							{
								OFFSET	291.4	-30.8	15.2
								CHANNELS 3  Xrotation Yrotation Zrotation
								JOINT right_lowarm_twist
								{
									OFFSET	110.7	-3.89999	13.6
									CHANNELS 3  Xrotation Yrotation Zrotation
									JOINT right_hand
									{
										OFFSET	110.7	-3.89999	13.6
										CHANNELS 3  Xrotation Yrotation Zrotation
										JOINT right_ee
										{
											OFFSET	80.8	-5.10001	12.1
											CHANNELS 3  Xrotation Yrotation Zrotation
											End Site
											{
												OFFSET	1	0	0
											}
										}
									}
								}
							}
						}
					}
				}
			}
		}
	}
	JOINT left_hip
	{
		OFFSET	-82.8	-127.5	0.300001
		CHANNELS 3  Xrotation Yrotation Zrotation
		JOINT left_knee
		{
			OFFSET	-28.2	-396.7	2.2
			CHANNELS 3  Xrotation Yrotation Zrotation
			JOINT left_ankle
			{
				OFFSET	-11.7	-411.3	35.4
				CHANNELS 3  Xrotation Yrotation Zrotation
				JOINT left_toes
				{
					OFFSET	0	-60	-88.6
					CHANNELS 3  Xrotation Yrotation Zrotation
					JOINT left_foot_ee
					{
						OFFSET	-22.5	-16.5	-42.2
						CHANNELS 3  Xrotation Yrotation Zrotation
						End Site
						{
							OFFSET	1	0	0
						}
					}
				}
			}
		}
	}
	JOINT right_hip
	{
		OFFSET	82.8	-127.5	0.300001
		CHANNELS 3  Xrotation Yrotation Zrotation
		JOINT right_knee
		{
			OFFSET	28.2	-396.7	2.2
			CHANNELS 3  Xrotation Yrotation Zrotation
			JOINT right_ankle
			{
				OFFSET	11.7	-411.3	35.4
				CHANNELS 3  Xrotation Yrotation Zrotation
				JOINT right_toes
				{
					OFFSET	0	-60	-88.6
					CHANNELS 3  Xrotation Yrotation Zrotation
					JOINT right_foot_ee
					{
						OFFSET	22.5	-16.5	-42.2
						CHANNELS 3  Xrotation Yrotation Zrotation
						End Site
						{
							OFFSET	1	0	0
						}
					}
				}
			}
		}
	}
}
MOTION
Frames: 6
Frame Time: 0.02
2552.77426243 735.123 -1482.8051147 -143.374722115 73.3263025642 138.259903732 5.59218 0.761304 3.10142 5.59736 0.56251 3.14352 5.62277 0.202987 3.18696 5.60928 0.703514 3.11503 -19.8281 5.4573 -9.3141 -19.9279 15.2767 -6.39472 -0.0 0.0 -0.0 -9.74828 14.2261 -14.6434 -13.9871 -33.1435 75.4198 0.268029 -7.56331 0.0177163 -15.6076 -0.803333 1.82068 1.74845 1.79173 12.4746 -0.0 0.0 -0.0 10.8294 -2.91981 -21.1699 -11.8689 18.352 -66.2114 1.73751 40.7154 -0.644756 56.0636 1.43628 6.73316 3.52434 -24.5992 -31.6167 0.0 0.0 0.0 29.8393 -11.9801 0.514759 -52.2189 -1.42086 7.61456 32.0643 19.5731 -4.22346 -40.1574 0.0 0.0 -0.0 0.0 -0.0 18.7019 21.5414 -2.50983 2.23457 0.098448 0.328733 26.3795 -27.7664 3.74205 1.85893 -0.0 -0.0 0.0 0.0 0.0 
2552.60988667 735.123 -1473.62367421 -147.192593286 71.5836229714 142.263435792 5.59218 0.761304 3.10142 5.59736 0.56251 3.14352 5.62277 0.202987 3.18696 5.60928 0.703514 3.11503 -19.8281 5.4573 -9.3141 -19.9279 15.2767 -6.39472 -0.0 0.0 -0.0 -9.74828 14.2261 -14.6434 -13.9871 -33.1435 75.4198 0.268029 -7.56331 0.0177163 -15.6076 -0.803333 1.82068 1.74845 1.79173 12.4746 -0.0 0.0 -0.0 10.8294 -2.91981 -21.1699 -11.8689 18.352 -66.2114 1.73751 40.7154 -0.644756 56.0636 1.43628 6.73316 3.52434 -24.5992 -31.6167 0.0 0.0 0.0 29.8393 -11.9801 0.514759 -52.2189 -1.42086 7.61456 32.0643 19.5731 -4.22346 -40.1574 0.0 0.0 -0.0 0.0 -0.0 18.7019 21.5414 -2.50983 2.23457 0.098448 0.328733 26.3795 -27.7664 3.74205 1.85893 -0.0 -0.0 0.0 0.0 0.0 
2545.90744336 741.379 -1470.3484425 -145.903008127 71.1517971133 140.88006366 5.57554 0.4819 3.19546 5.58118 0.277697 3.21961 5.59101 -0.0908568 3.23028 5.57669 0.420179 3.20415 -22.8891 5.23706 -9.10597 -23.0323 14.2711 -5.98426 -0.0 0.0 -0.0 -10.2304 13.7686 -15.6884 -14.7194 -33.061 76.9453 0.331295 -9.32014 0.027005 -17.0298 -0.900671 1.97454 2.1752 6.72109 17.2622 -0.0 0.0 -0.0 10.7728 -3.02057 -21.0459 -10.2669 18.5435 -65.0194 2.16051 46.9376 -0.93811 58.06 1.60429 6.92611 4.21409 -22.3556 -36.213 0.0 0.0 0.0 31.6956 -12.2567 1.17384 -39.851 -0.457317 5.97742 32.9045 15.3577 -4.24893 -39.8547 0.0 0.0 -0.0 0.0 -0.0 18.9744 19.2795 -2.42716 1.9095 0.0833289 0.281148 25.0307 -28.4327 3.58928 -0.862296 0.0 0.0 0.0 0.0 0.0 
2539.86955621 743.905 -1467.97428768 -148.157865621 70.4299945198 143.202100361 5.53383 0.241987 3.19114 5.5395 0.0385415 3.20006 5.53601 -0.329654 3.18329 5.52191 0.176959 3.1954 -24.1902 5.88265 -9.56653 -24.4157 15.5033 -5.96888 -0.0 0.0 -0.0 -10.1878 12.9063 -15.9485 -16.3693 -32.8086 77.2926 0.405507 -11.3584 0.0403264 -17.2999 -0.919586 2.00348 2.35535 6.77123 18.5203 -0.0 0.0 -0.0 10.7235 -4.52203 -20.8169 -9.70287 18.2107 -64.9863 2.29885 48.7058 -1.04064 57.2444 1.53483 6.84798 4.56997 -20.2528 -38.6023 0.0 0.0 0.0 30.8649 -11.8744 1.07581 -32.9924 -0.0821351 4.99325 32.4514 10.831 -4.15991 -39.01 0.0 0.0 -0.0 0.0 -0.0 18.9933 18.5661 -2.45209 0.249137 0.0103388 0.0368341 25.1881 -26.4947 3.56336 -1.72524 0.0 0.0 0.0 0.0 0.0 
2472.8392261 751.644 -1522.18559216 -101.314316103 77.1782075695 96.7419913631 5.58531 0.285854 2.39032 5.58848 0.133217 2.40365 5.59084 -0.141539 2.40318 5.58286 0.239663 2.39539 -21.8824 9.28161 -2.85549 -22.5048 19.2514 1.66783 -0.0 0.0 -0.0 -7.20513 2.4534 -13.586 -13.0247 -43.2632 76.5071 0.932323 -24.7893 0.204897 -22.5496 -1.31393 2.54778 4.60034 12.8883 37.118 -0.0 0.0 -0.0 9.51594 -8.53655 -18.0958 -19.0701 11.8364 -65.4161 1.40944 34.9206 -0.443341 53.7557 1.25061 6.50305 4.84788 -10.5675 -38.475 0.0 0.0 0.0 22.4829 -10.7038 -0.279157 -11.3916 0.298896 1.71981 30.8016 15.1862 -4.0239 -35.1637 0.0 0.0 -0.0 0.0 -0.0 22.55 6.39747 -5.08457 -12.2381 -0.307367 -1.84941 37.7936 -15.8093 4.74147 -33.3256 0.0 0.0 0.0 0.0 0.0 
2472.84090647 751.644 -1522.1969783 -101.305749251 77.1785975205 96.7332054411 5.58531 0.285854 2.39032 5.58848 0.133217 2.40365 5.59084 -0.141539 2.40318 5.58286 0.239663 2.39539 -21.8824 9.28161 -2.85549 -22.5048 19.2514 1.66783 -0.0 0.0 -0.0 -7.20513 2.4534 -13.586 -13.0247 -43.2632 76.5071 0.932323 -24.7893 0.204897 -22.5496 -1.31393 2.54778 4.60034 12.8883 37.118 -0.0 0.0 -0.0 9.51594 -8.53655 -18.0958 -19.0701 11.8364 -65.4161 1.40944 34.9206 -0.443341 53.7557 1.25061 6.50305 4.84788 -10.5675 -38.475 0.0 0.0 0.0 22.4829 -10.7038 -0.279157 -11.3916 0.298896 1.71981 30.8016 15.1862 -4.0239 -35.1637 0.0 0.0 -0.0 0.0 -0.0 22.55 6.39747 -5.08457 -12.2381 -0.307367 -1.84941 37.7936 -15.8093 4.74147 -33.3256 0.0 0.0 0.0 0.0 0.0 
